<svg width="60" height="60" viewBox="0 0 60 60" fill="none" xmlns="http://www.w3.org/2000/svg">
<g opacity="0.5">
<path fill-rule="evenodd" clip-rule="evenodd" d="M25.5857 7.31626C23.4881 7.79987 16.8723 11.916 10.8854 16.464L2.28984e-06 24.7334V36.8872C-0.00119773 45.351 0.469213 49.4299 1.54803 50.3251C8.34977 55.97 51.3538 55.898 58.5 50.2303C59.5164 49.4227 60 45.255 60 37.2869V25.5326L50.0998 17.8213C36.3223 7.08826 32.9155 5.62903 25.5857 7.31626ZM33.9979 9.80871C34.7683 9.85071 34.1059 10.4027 32.5255 11.0351C30.945 11.6675 28.515 11.8236 27.1253 11.3807C24.6353 10.5899 24.6341 10.5647 26.9993 9.63951C28.3194 9.1235 30.1182 8.93269 30.9978 9.2171C31.8762 9.50031 33.2263 9.76791 33.9979 9.80871ZM29.3994 13.8432C30.7194 13.8444 33.4195 13.5036 35.3995 13.086C38.4668 12.438 40.1084 13.2036 46.4997 18.2593C50.6254 21.5233 53.9999 24.6866 53.9999 25.2902C53.9999 27.0507 43.6269 28.3335 29.3994 28.3335C15.6003 28.3335 4.7989 27.0591 4.7989 25.4318C4.7989 24.9062 8.39897 21.7118 12.8007 18.3325C19.372 13.2864 21.3556 12.336 23.9009 13.0152C25.6049 13.47 28.0794 13.842 29.3994 13.8432ZM13.9827 30.1707C25.9997 32.1388 44.7729 31.2615 54.1163 28.2963C56.2451 27.6207 56.3999 28.2999 56.3999 38.3105V49.0495L51.0682 50.3911C42.6393 52.514 41.9996 52.298 41.9996 47.3287C41.9996 40.3073 39.4724 38.5301 29.5134 38.5517C24.8309 38.5625 20.2648 39.0353 19.3684 39.6041C18.472 40.1717 17.452 43.1682 17.1039 46.263L16.4691 51.8888L11.5346 51.0727C2.63645 49.5991 2.39885 49.2547 2.39885 37.8101C2.39885 28.2915 2.55965 27.6231 4.6825 28.2963C5.93892 28.6959 10.1246 29.5383 13.9827 30.1707ZM38.1596 42.3738C40.2908 44.505 39.9728 51.3343 37.7012 52.2056C35.2447 53.1476 24.7541 53.1476 22.2976 52.2056C20.9656 51.6943 20.3992 49.9051 20.3992 46.2054V40.9337H28.5594C33.3067 40.9337 37.3219 41.5361 38.1596 42.3738Z" fill="#FEFAF6"/>
</g>
</svg>
