<svg width="60" height="60" viewBox="0 0 60 60" fill="none" xmlns="http://www.w3.org/2000/svg">
<g opacity="0.5" clip-path="url(#clip0_50_757)">
<path d="M45.0774 41.5419L55.7842 52.2487L52.2487 55.7842L41.5419 45.0774C37.6922 48.1574 32.8099 49.9999 27.4999 49.9999C15.0799 49.9999 4.99994 39.9199 4.99994 27.4999C4.99994 15.0799 15.0799 4.99994 27.4999 4.99994C39.9199 4.99994 49.9999 15.0799 49.9999 27.4999C49.9999 32.8099 48.1574 37.6922 45.0774 41.5419ZM40.0617 39.6869C43.1187 36.5364 44.9999 32.2389 44.9999 27.4999C44.9999 17.8312 37.1687 9.99994 27.4999 9.99994C17.8312 9.99994 9.99994 17.8312 9.99994 27.4999C9.99994 37.1687 17.8312 44.9999 27.4999 44.9999C32.2389 44.9999 36.5364 43.1187 39.6869 40.0617L40.0617 39.6869ZM24.9999 24.9999V17.4999H29.9999V24.9999H37.4999V29.9999H29.9999V37.4999H24.9999V29.9999H17.4999V24.9999H24.9999Z" fill="#FEFAF6"/>
</g>
<defs>
<clipPath id="clip0_50_757">
<rect width="60" height="60" fill="white"/>
</clipPath>
</defs>
</svg>
